<?xml version="1.0" standalone="no"?>
<!DOCTYPE svg PUBLIC "-//W3C//DTD SVG 20010904//EN"
 "http://www.w3.org/TR/2001/REC-SVG-20010904/DTD/svg10.dtd">
<svg version="1.0" xmlns="http://www.w3.org/2000/svg"
 width="512.000000pt" height="512.000000pt" viewBox="0 0 512.000000 512.000000"
 preserveAspectRatio="xMidYMid meet">
<metadata>
Created by potrace 1.14, written by Peter Selinger 2001-2017
</metadata>
<g transform="translate(0.000000,512.000000) scale(0.100000,-0.100000)"
fill="#000000" stroke="none">
<path d="M2260 5105 c-436 -53 -847 -213 -1196 -465 l-81 -59 -199 -3 c-190
-3 -201 -4 -232 -26 -17 -13 -44 -40 -60 -59 l-27 -36 -3 -214 -3 -214 -55
-84 c-189 -290 -318 -632 -381 -1010 -26 -158 -26 -592 0 -750 89 -534 305
-983 651 -1353 l86 -92 0 1570 0 1570 1359 0 1358 0 -32 -122 c-18 -68 -38
-142 -44 -165 l-12 -43 -1103 0 c-1240 0 -1162 5 -1241 -75 -120 -119 -89
-318 61 -395 l49 -25 1048 -3 c576 -1 1047 -6 1047 -10 0 -4 -30 -123 -67
-264 l-68 -258 -966 0 c-1086 0 -1025 4 -1104 -75 -120 -119 -89 -318 61 -395
l49 -25 951 -3 951 -2 21 -23 21 -23 -24 -89 c-15 -52 -23 -101 -19 -117 6
-32 57 -78 85 -78 22 0 23 -3 7 -69 l-11 -51 -977 0 c-1099 0 -1036 4 -1115
-75 -74 -73 -75 -83 -75 -540 l0 -402 98 -70 c612 -442 1411 -592 2122 -400
l115 31 470 6 470 5 57 28 c171 84 265 265 228 442 -34 167 -171 301 -325 320
l-55 7 0 212 c0 253 -9 295 -74 360 -72 73 -91 76 -472 76 l-332 0 10 39 c10
38 11 39 49 34 49 -7 96 12 113 46 7 14 21 59 32 100 l18 73 51 23 c51 22 99
69 116 112 8 22 12 23 137 23 163 0 214 14 276 76 46 45 76 115 76 174 0 58
-31 132 -74 174 -52 53 -116 76 -207 76 l-68 0 26 93 c14 50 46 170 72 266
l46 174 43 15 c86 28 162 137 162 232 0 46 -28 121 -58 159 l-29 36 52 190 52
190 246 3 247 2 -2 -1395 c-2 -767 -2 -1395 0 -1395 8 0 120 183 171 281 390
745 390 1633 0 2378 -33 63 -84 152 -114 198 l-55 84 0 195 c0 153 -3 203 -15
232 -36 84 -101 121 -212 122 -52 0 -73 4 -73 13 0 6 14 62 30 122 17 61 30
125 30 143 0 68 -59 157 -119 181 -64 26 -293 81 -335 81 -105 0 -169 -60
-206 -190 -13 -47 -24 -86 -26 -88 -1 -2 -29 10 -62 27 -152 77 -400 161 -589
200 -242 50 -585 65 -823 36z m1312 -875 l-27 -100 -892 2 -893 3 -26 27 c-48
47 -31 133 31 159 11 4 428 8 926 8 l907 1 -26 -100z m895 67 c38 -38 38 -96
0 -134 -26 -26 -34 -28 -127 -31 -79 -3 -100 -1 -100 10 0 12 34 143 45 177 4
10 23 12 80 9 66 -3 78 -7 102 -31z m-300 -3660 c57 -57 103 -109 103 -116 0
-15 -174 -197 -203 -213 -23 -12 -67 14 -67 39 0 10 23 41 52 70 l52 53 -382
0 c-369 0 -383 1 -402 20 -11 11 -20 25 -20 30 0 6 9 19 20 30 19 19 33 20
402 20 l382 0 -52 53 c-29 29 -52 58 -52 65 0 15 36 52 52 52 7 0 58 -46 115
-103z"/>
</g>
</svg>
